<svg width="28" height="28" viewBox="0 0 28 28" fill="none" xmlns="http://www.w3.org/2000/svg">
<path d="M23.9001 16.924C23.867 16.9926 23.8014 17.0399 23.7262 17.0486C22.0121 17.2495 20.1908 17.0087 19.4886 16.8974C18.3164 15.7145 17.0474 14.3987 16.1119 13.2488C16.016 13.131 16.0113 12.9626 16.0996 12.8385C17.4337 10.9598 18.6555 9.46906 19.172 8.87883C20.6477 8.55396 22.1192 8.26637 23.1129 8.22537C23.188 8.22232 23.2594 8.25723 23.3034 8.31875C24.5843 10.1184 25.5006 11.8427 25.7946 12.4729C25.2064 14.069 24.4988 15.6814 23.9001 16.924ZM22.2647 19.9688C21.3199 21.5666 20.6021 22.5299 20.372 22.8228C20.0598 23.2679 19.264 24.4277 18.0277 25.6008C17.9488 25.6756 17.846 25.7187 17.7375 25.7235C16.1893 25.7886 14.7498 25.6789 14.1892 25.5554C13.7145 25.3571 12.6098 24.8553 11.304 24.1261C11.1901 24.0626 11.1231 23.9386 11.1316 23.8078C11.1998 22.7855 11.5209 21.3291 11.805 19.7891C12.5074 18.5432 13.2357 17.1217 13.9908 15.9541C14.0703 15.8313 14.2192 15.7741 14.3597 15.8129C16.6207 16.4363 18.5826 16.9097 19.3791 17.0907C20.4697 18.3681 21.5266 19.2663 22.2376 19.8231C22.2818 19.8577 22.2932 19.9203 22.2647 19.9688ZM8.5852 22.1892C8.47064 22.2609 8.32472 22.2571 8.21464 22.1784C7.23014 21.4745 6.05548 20.5749 5.07709 19.6515C4.49994 18.6553 4.05486 17.3804 3.74416 16.2947C3.72407 16.2248 3.73954 16.1491 3.78515 16.0927C4.88299 14.7295 6.20058 13.6509 6.7514 13.2403C7.99407 13.7817 9.42039 14.2594 10.6681 14.6785C10.7957 14.7213 10.8858 14.8369 10.8964 14.9719C11.0723 17.2138 11.479 19.0269 11.5876 19.7197C11.1217 20.2224 9.90442 21.3622 8.5852 22.1892ZM3.11692 13.3677C2.95403 12.3093 2.84694 11.1979 2.83513 10.6888C2.80812 9.51337 2.99299 8.47237 3.20773 7.50853C3.24302 7.35075 3.32405 7.20773 3.44228 7.09843C4.06599 6.5214 5.19382 5.50336 5.90563 5.04228C6.57657 4.60777 8.44132 3.99973 9.21027 3.77417C9.3593 3.73028 9.51812 3.79721 9.59481 3.9333C9.68724 4.09735 9.78389 4.2602 9.88637 4.42052C10.4918 5.3724 11.1589 6.1919 11.4399 6.54686C11.0674 8.04047 10.9091 9.71519 10.8371 11.1279C10.8303 11.2604 10.7467 11.3765 10.6241 11.4248C8.67859 12.1913 7.20815 12.791 6.71407 13.0214C5.37734 13.0783 4.10413 13.3085 3.24478 13.4601C3.18384 13.471 3.12642 13.429 3.11692 13.3677ZM12.9244 3.1101C12.9776 3.02673 13.0648 2.97115 13.1622 2.9581C15.1629 2.69118 16.9933 2.65188 17.6968 2.67152C18.9771 3.5314 20.2281 4.66597 21.2266 5.74196C21.2965 5.81737 21.307 5.93092 21.2517 6.01802C20.5392 7.14344 19.503 8.22402 19.0479 8.69456C17.3599 9.09806 15.5703 9.68543 14.1178 10.1669C13.9765 10.2137 13.8212 10.1607 13.7368 10.0369C12.6346 8.41994 11.9342 7.03369 11.6596 6.51941C11.9577 5.17131 12.3746 3.97057 12.9244 3.1101ZM26.2884 16.3841C26.2525 16.4004 26.2114 16.3749 26.2094 16.3354C26.1255 14.6755 25.9743 13.0626 25.8951 12.4728C25.9015 11.0392 25.6661 9.55165 25.4313 8.45482C25.4229 8.41517 25.4577 8.37975 25.4972 8.38771C26.8401 8.66462 27.2712 9.17251 27.2712 9.17251C26.5602 7.56277 25.5358 6.34968 24.4224 5.43286C23.4705 3.42018 22.3748 2.48924 22.3748 2.48924C22.4634 2.93442 22.4024 3.43791 22.2453 3.95749C22.2354 3.99053 22.1979 4.0063 22.1671 3.99122C20.3426 3.09033 18.4585 2.67887 17.7298 2.57589C16.6408 2.04139 15.4513 1.68772 14.484 1.41963C14.4582 1.41251 14.4512 1.37879 14.472 1.36133C15.7558 0.285556 16.9367 0.0117049 16.9367 0.0117049C14.846 -0.072858 13.0466 0.308946 11.5419 0.892762C9.29388 0.710921 7.86186 1.10562 7.86186 1.10562C7.86186 1.10562 8.48258 1.85567 8.72392 2.27323C8.75297 2.32374 8.73777 2.38847 8.69012 2.42169C7.27615 3.41136 6.26166 4.49854 5.86165 4.95112C5.41602 5.01195 4.64422 5.11956 3.97016 5.28734C3.94328 5.29411 3.92048 5.26683 3.93134 5.24108C4.60636 3.61804 5.34218 2.7196 5.34218 2.7196C5.34218 2.7196 1.0035 5.82926 0.181073 11.4172C0.181073 11.4172 0.538332 10.4267 1.74639 8.92533C1.76227 8.90567 1.79308 8.90956 1.8034 8.93279C2.14572 9.69775 2.53705 10.377 2.73373 10.6888C2.0693 11.7683 1.61065 12.9454 1.32818 13.9087C1.31841 13.9422 1.29343 13.969 1.26086 13.9814C0.255999 14.3664 0 14.7337 0 14.7337C0.156233 15.2722 0.462996 15.7972 0.850524 16.292C0.884187 16.3348 0.90129 16.3882 0.898983 16.4428C0.792294 18.8276 1.55459 20.3973 1.55459 20.3973C1.7267 19.5644 2.06374 18.7553 2.48941 17.996C2.50638 17.9657 2.54628 17.9582 2.57316 17.9797C3.56485 18.7747 4.5921 19.4696 4.99972 19.7164C5.20998 20.2583 5.81196 21.6643 6.61634 23.1067C6.63317 23.1372 6.61946 23.1757 6.58702 23.1876C5.62384 23.5418 4.63567 23.702 3.72963 23.4794C3.72963 23.4794 4.82231 24.8532 8.19292 25.439C9.12801 26.5542 10.266 27.4777 11.595 27.7986C11.595 27.7986 11.2055 27.3664 11.1092 25.756C11.1072 25.7233 11.1331 25.6955 11.1656 25.6961C11.9978 25.7087 13.1267 25.7269 14.16 25.6512C14.5263 25.9426 15.3255 26.5822 16.105 26.9898C16.1438 27.0101 16.1463 27.0652 16.1089 27.0881C14.7387 27.924 13.8269 27.9968 13.8269 27.9968C20.0338 28.1302 23.7604 24.0462 23.7604 24.0462C22.738 24.7247 21.5574 25.1466 20.3822 25.3979C20.3426 25.4064 20.3078 25.371 20.3161 25.331C20.5344 24.2658 20.4731 23.2359 20.4578 22.873C21.9304 22.5044 23.215 21.8406 24.1661 21.1619C24.1853 21.1482 24.2303 21.1616 24.2303 21.1616C24.2303 21.1616 24.9651 21.7513 25.3032 22.2704C25.3032 22.2704 25.9471 21.3512 26.1686 19.2216C27.763 17.1217 28 14.9724 28 14.9724C27.6 15.6034 26.996 16.0582 26.2884 16.3841Z" fill="white"/>
</svg>
