<svg width="256" height="243" viewBox="0 0 256 243" fill="none" xmlns="http://www.w3.org/2000/svg">
<path d="M170.373 71.3553C170.232 71.6444 169.952 71.8438 169.632 71.8808C162.332 72.7277 154.575 71.7126 151.585 71.2432C146.592 66.2554 141.188 60.7074 137.203 55.8589C136.795 55.3623 136.775 54.6521 137.151 54.129C142.833 46.2074 148.036 39.9218 150.236 37.4331C156.521 36.0633 162.788 34.8507 167.02 34.6778C167.34 34.6649 167.644 34.8121 167.831 35.0715C173.287 42.6596 177.189 49.9303 178.441 52.5872C175.936 59.3174 172.923 66.1161 170.373 71.3553ZM163.408 84.1936C159.384 90.9308 156.327 94.9925 155.347 96.2273C154.017 98.1043 150.628 102.994 145.363 107.941C145.027 108.256 144.588 108.438 144.127 108.458C137.533 108.733 131.402 108.27 129.015 107.749C126.993 106.913 122.288 104.798 116.727 101.723C116.242 101.455 115.956 100.932 115.992 100.381C116.283 96.07 117.65 89.9295 118.86 83.4358C121.852 78.1826 124.953 72.1889 128.169 67.2659C128.508 66.7479 129.142 66.5069 129.741 66.6704C139.37 69.299 147.726 71.2952 151.118 72.0583C155.763 77.4444 160.264 81.2315 163.292 83.5791C163.481 83.7254 163.529 83.989 163.408 84.1936ZM105.147 93.5559C104.659 93.8582 104.038 93.8421 103.569 93.5102C99.3762 90.5423 94.3734 86.7494 90.2065 82.8559C87.7484 78.6555 85.8529 73.2798 84.5296 68.7019C84.444 68.407 84.5099 68.0879 84.7042 67.8503C89.3798 62.1023 94.9914 57.5545 97.3373 55.8231C102.63 58.1061 108.704 60.1202 114.018 61.8873C114.562 62.0677 114.945 62.555 114.991 63.1244C115.74 72.5774 117.472 80.2221 117.934 83.1432C115.95 85.2631 110.766 90.0688 105.147 93.5559ZM81.8582 56.3601C81.1645 51.8978 80.7084 47.2112 80.6581 45.0647C80.5431 40.1086 81.3304 35.7193 82.245 31.6553C82.3953 30.99 82.7404 30.3869 83.2439 29.9261C85.9003 27.493 90.7037 23.2005 93.7352 21.2564C96.5927 19.4243 104.535 16.8605 107.809 15.9094C108.444 15.7244 109.121 16.0066 109.447 16.5804C109.841 17.2721 110.252 17.9587 110.689 18.6347C113.267 22.6483 116.109 26.1037 117.305 27.6004C115.719 33.8981 115.045 40.9596 114.738 46.9163C114.709 47.4751 114.353 47.9645 113.831 48.1681C105.545 51.4 99.2826 53.9288 97.1783 54.9C91.4852 55.1402 86.0627 56.1105 82.4028 56.7501C82.1432 56.7958 81.8987 56.6188 81.8582 56.3601ZM123.628 13.1094C123.854 12.7579 124.226 12.5235 124.641 12.4685C133.161 11.343 140.957 11.1773 143.953 11.2601C149.406 14.8858 154.734 19.6697 158.986 24.2066C159.284 24.5245 159.329 25.0033 159.093 25.3706C156.059 30.1158 151.646 34.6721 149.707 36.6561C142.518 38.3575 134.897 40.8341 128.71 42.8643C128.109 43.0615 127.447 42.8379 127.088 42.3162C122.394 35.4982 119.411 29.6531 118.241 27.4847C119.511 21.8004 121.286 16.7375 123.628 13.1094ZM180.544 69.0788C180.392 69.1476 180.216 69.0401 180.208 68.8736C179.85 61.8746 179.206 55.0739 178.869 52.5869C178.897 46.5424 177.894 40.27 176.894 35.6453C176.858 35.4781 177.006 35.3287 177.174 35.3623C182.894 36.5299 184.73 38.6714 184.73 38.6714C181.702 31.884 177.339 26.769 172.597 22.9032C168.543 14.4168 163.877 10.4916 163.877 10.4916C164.254 12.3686 163.994 14.4916 163.325 16.6824C163.283 16.8217 163.123 16.8882 162.992 16.8246C155.221 13.026 147.197 11.2911 144.094 10.8569C139.456 8.60321 134.39 7.11196 130.27 5.98155C130.16 5.95155 130.13 5.80934 130.219 5.73573C135.686 1.19977 140.716 0.0450809 140.716 0.0450809C131.812 -0.311476 124.148 1.29839 117.74 3.76003C108.166 2.99331 102.067 4.65753 102.067 4.65753C102.067 4.65753 104.71 7.82011 105.738 9.58075C105.862 9.79372 105.797 10.0666 105.594 10.2067C99.5722 14.3796 95.2515 18.9637 93.5479 20.872C91.65 21.1285 88.3629 21.5822 85.4921 22.2896C85.3777 22.3182 85.2805 22.2032 85.3268 22.0946C88.2017 15.2511 91.3355 11.4629 91.3355 11.4629C91.3355 11.4629 72.8573 24.5746 69.3546 48.136C69.3546 48.136 70.8762 43.9595 76.0212 37.6292C76.0888 37.5463 76.2201 37.5627 76.264 37.6606C77.722 40.886 79.3886 43.7503 80.2263 45.0648C77.3965 49.6165 75.4431 54.5797 74.2401 58.6414C74.1985 58.7824 74.0921 58.8958 73.9534 58.9478C69.6737 60.5711 68.5834 62.1198 68.5834 62.1198C69.2488 64.3905 70.5553 66.6041 72.2058 68.6904C72.3491 68.8708 72.422 69.0962 72.4122 69.3263C71.9578 79.3817 75.2043 86.0003 75.2043 86.0003C75.9374 82.4884 77.3728 79.077 79.1857 75.8755C79.258 75.7478 79.4279 75.716 79.5424 75.8068C83.7659 79.1585 88.141 82.0889 89.877 83.1295C90.7724 85.4141 93.3363 91.3425 96.7621 97.4246C96.8338 97.5529 96.7754 97.7154 96.6372 97.7657C92.5351 99.2589 88.3265 99.9347 84.4677 98.9959C84.4677 98.9959 89.1214 104.788 103.477 107.259C107.459 111.961 112.306 115.855 117.966 117.208C117.966 117.208 116.307 115.385 115.897 108.595C115.888 108.458 115.999 108.34 116.137 108.343C119.681 108.396 124.489 108.473 128.89 108.153C130.45 109.382 133.854 112.079 137.174 113.797C137.339 113.883 137.35 114.115 137.191 114.212C131.355 117.737 127.472 118.044 127.472 118.044C153.906 118.606 169.778 101.386 169.778 101.386C165.424 104.247 160.395 106.026 155.39 107.085C155.221 107.121 155.073 106.972 155.109 106.803C156.038 102.312 155.777 97.9692 155.712 96.439C161.984 94.885 167.455 92.0859 171.506 89.2243C171.587 89.1665 171.696 89.1659 171.779 89.2232C173.465 90.395 174.908 91.7096 176.348 93.8982C176.348 93.8982 179.091 90.0227 180.034 81.0431C186.825 72.189 187.834 63.1263 187.834 63.1263C186.13 65.7872 183.558 67.7047 180.544 69.0788ZM128.209 156.504C116.871 156.504 106.584 161.566 100.31 169.052L102.3 171.504C107.999 164.428 117.693 159.563 128.209 159.563C138.727 159.563 148.421 164.428 154.119 171.504L156.109 169.052C149.834 161.566 139.548 156.504 128.209 156.504ZM101.688 158.093C100.942 158.698 100.075 158.994 99.3098 158.903C98.3397 158.792 97.7506 158.396 96.7852 157.206L91.2251 150.385L88.2271 152.817L94.2826 160.251C95.5695 161.825 97.0367 162.668 98.7658 162.827C98.9704 162.846 99.1727 162.856 99.3728 162.858C101.049 162.872 102.606 162.283 104.115 161.065C105.795 159.695 106.718 158.104 106.934 156.202C107.131 154.479 106.604 152.874 105.321 151.295L99.2664 143.863L96.2684 146.295L101.826 153.119V153.12C102.795 154.305 103.063 154.962 102.973 155.934C102.906 156.699 102.438 157.486 101.688 158.093ZM122.193 136.604L112.481 138.572C112.038 138.661 111.687 138.883 111.469 139.213C111.249 139.543 111.181 139.951 111.271 140.393L113.206 149.909C113.521 151.457 114.216 152.571 115.273 153.222C115.972 153.652 116.81 153.867 117.776 153.867C118.268 153.866 118.794 153.81 119.35 153.697L125.42 152.468L124.69 148.876L118.785 150.072C117.576 150.316 117.183 150.183 116.908 148.829L116.7 147.808L123.53 146.424L122.808 142.873L115.977 144.256L115.459 141.708L122.924 140.196L122.193 136.604ZM141.078 141.797L146.898 143.301L147.818 139.76L141.833 138.213C138.553 137.364 136.307 138.59 135.509 141.663L133.065 151.073C132.953 151.51 132.998 151.92 133.199 152.261C133.399 152.601 133.736 152.841 134.174 152.954L136.396 153.528L137.97 147.442L144.706 149.183L145.616 145.683L138.878 143.94L139.14 142.934C139.486 141.6 139.885 141.488 141.078 141.797ZM171.276 150.391L173.331 147.86C172.31 146.841 171.248 145.853 170.142 144.9C158.645 134.997 143.753 129.543 128.209 129.543C112.666 129.543 97.7743 134.997 86.2766 144.9C85.1707 145.853 84.1082 146.841 83.0878 147.859L85.1424 150.391C86.1801 149.343 87.2646 148.327 88.397 147.351C99.3057 137.956 113.444 132.782 128.209 132.782C142.974 132.782 157.113 137.956 168.021 147.351C169.155 148.327 170.238 149.343 171.276 150.391ZM155.592 162.954L156.259 160.66L153.392 158.522L155.701 156.872L157.038 157.874L158.556 152.764L149.744 158.45L146.131 156.411L159.954 147.485C160.487 147.14 161.216 146.837 162.139 147.545L162.73 147.999C163.661 148.715 163.528 149.535 163.346 150.089L158.758 165.845L155.592 162.954ZM90.5395 237.575H80.3453V229.763H86.4205L88.9075 231.88H88.9908V223.905H88.9075L86.4205 226.021H80.3453V219.226H90.173L93.0276 222.278H93.1085L92.7825 215.522H71.8219V215.605L73.7406 217.924V238.918L71.8219 241.237V241.318H93.6797L94.2098 233.547H94.1271L90.5395 237.575ZM94.3907 185.653L101.609 204.044H105.646L112.334 185.45L113.475 201.642L110.946 203.96V204.044H121.915V203.96L119.796 201.642L118.245 180.647L119.918 178.328V178.248H110.784L104.585 195.457L97.8975 178.248H88.6416V178.328L90.5181 180.647L89.4156 201.642L87.1749 203.96V204.044H96.1846V203.96L93.9433 201.642L94.3907 185.653ZM64.0385 237.534H55.1907V217.924L57.5976 215.605V215.522H46.6676V215.605L48.586 217.924V238.918L46.6676 241.195V241.318H67.1784L68.1582 233.223H68.075L64.0385 237.534ZM44.285 203.96V204.044H54.6843V203.96L52.7658 201.642V180.647L54.6843 178.328V178.248H44.285V178.328L46.1612 180.647V188.459H36.9053V180.647L38.7816 178.328V178.248H28.3828V178.328L30.2999 180.647V201.642L28.3828 203.96V204.044H38.7816V203.96L36.9053 201.642V192.569H46.1612V201.642L44.285 203.96ZM206.695 237.575H196.5V229.763H202.575L205.062 231.88H205.145V223.905H205.062L202.575 226.021H196.5V219.226H206.328L209.182 222.278H209.263L208.938 215.522H187.977V215.605L189.895 217.924V238.918L187.977 241.237V241.318H209.835L210.365 233.547H210.282L206.695 237.575ZM113.113 231.024L110.056 220.773L106.467 231.024H113.113ZM122.247 238.918L124.367 241.237V241.318H113.318V241.237L115.439 238.918L114.256 234.891H105.122L103.734 238.918L105.733 241.237V241.318H97.0887V241.237L99.1282 238.918L107.079 217.924L105.57 215.605V215.522H114.337L122.247 238.918ZM16.3167 200.625C11.0146 200.625 7.63029 195.254 7.63029 190.615C7.63029 184.919 10.7289 181.218 15.1738 181.218C16.3562 181.218 17.4991 181.34 18.5189 181.622L22.5141 186.547H22.5965L22.3108 178.409C21.1678 177.962 18.6821 177.351 15.6228 177.351C6.16401 177.351 0.739746 183.78 0.739746 191.185C0.739746 198.51 5.95884 204.936 14.9297 204.936C17.3359 204.936 20.8835 204.124 23.33 202.293L23.6966 198.021H23.6157C21.5368 199.648 18.5578 200.625 16.3167 200.625ZM164.8 203.96L162.924 201.642V180.647L164.8 178.328V178.248H154.402V178.328L156.319 180.647V201.642L154.402 203.96V204.044H164.8V203.96ZM141.99 229.234L144.558 231.555V236.397C143.742 237.332 142.315 238.104 140.4 238.104C135.832 238.104 133.426 232.53 133.426 227.851C133.426 222.765 135.996 218.494 141.296 218.494C142.764 218.494 144.314 218.616 145.577 219.062L149.655 223.456H149.736L149.491 216.377C147.127 215.156 144.272 214.63 141.377 214.63C132.692 214.63 126.535 219.959 126.535 228.747C126.535 236.109 131.265 242.215 138.645 242.215C141.867 242.215 144.802 241.481 147.534 239.489L150.754 242.215H150.838V231.555L152.875 229.234V229.153H141.99V229.234ZM135.241 191.512C136.057 191.756 136.993 191.877 137.973 191.877C141.562 191.877 143.111 189.924 143.111 187.035C143.111 183.617 141.113 181.991 137.401 181.991H135.241V191.512ZM128.636 201.642V180.647L126.718 178.328V178.248H138.952C146.374 178.248 149.758 181.622 149.758 186.752C149.758 192.081 145.721 195.376 140.216 195.376C138.422 195.376 136.587 195.254 135.241 194.929V201.642L137.932 203.96V204.044H126.718V203.96L128.636 201.642ZM190.243 193.016C190.243 188.541 188.572 181.421 182.862 181.421C178.295 181.421 176.99 185.977 176.99 189.069C176.99 193.586 178.867 200.869 184.372 200.869C188.326 200.869 190.243 197.124 190.243 193.016ZM183.392 204.936C175.319 204.936 170.1 198.304 170.1 190.78C170.1 183.007 176.093 177.351 183.597 177.351C191.874 177.351 197.175 183.821 197.175 191.226C197.175 199.689 190.774 204.936 183.392 204.936ZM174.769 215.605L176.89 217.924V232.613C176.89 236.844 174.811 237.902 171.426 237.902C168 237.902 165.921 236.924 165.921 232.613V217.924L168.042 215.605V215.522H157.398V215.605L159.315 217.924V232.613C159.315 239.65 162.904 242.215 170.569 242.215C177.542 242.215 181.09 239.813 181.09 232.815V217.924L182.964 215.605V215.522H174.769V215.605ZM224.017 218.775C224.017 216.941 222.624 215.555 220.865 215.555C219.087 215.555 217.696 216.941 217.696 218.775C217.696 220.646 219.087 222.023 220.865 222.023C222.624 222.023 224.017 220.646 224.017 218.775ZM224.8 218.775C224.8 221.026 222.983 222.668 220.865 222.668C218.729 222.668 216.915 221.026 216.915 218.775C216.915 216.551 218.729 214.907 220.865 214.907C222.983 214.907 224.8 216.551 224.8 218.775ZM220.859 218.506C221.433 218.506 221.949 218.475 221.949 217.784C221.949 217.228 221.445 217.127 220.967 217.127H220.04V218.506H220.859ZM221.496 219.054L222.762 221.025H222.007L220.829 219.086H220.04V221.025H219.366V216.551H221.073C222.133 216.551 222.655 216.941 222.655 217.822C222.655 218.623 222.151 218.969 221.496 219.054ZM219.801 178.328L222.29 180.647V194.318L211.809 178.248H202.389V178.328L204.307 180.647V201.642L202.389 203.96V204.044H210.993V203.96L208.466 201.642V184.553L221.554 204.044H226.448V180.647L228.364 178.328V178.248H219.801V178.328ZM246.095 188.176C241.406 186.874 239.979 186.304 239.979 184.148C239.979 181.666 243.202 181.177 245.24 181.177C246.953 181.177 248.543 181.379 249.97 181.827L253.885 186.06H253.966L253.64 178.775C251.192 177.841 248.624 177.351 245.689 177.351C239.531 177.351 233.618 179.467 233.618 185.572C233.618 189.517 236.351 191.877 242.263 193.506C246.831 194.766 249.074 195.579 249.074 197.899C249.074 200.584 245.648 201.153 243.363 201.153C241.448 201.153 239.735 200.869 238.266 200.421L234.312 195.539H234.23L234.515 203.268C237.208 204.489 240.469 204.936 243.526 204.936C250.132 204.936 255.679 202.171 255.679 196.597C255.679 191.348 252.05 189.843 246.095 188.176ZM67.0711 193.749H73.7175L70.6605 183.495L67.0711 193.749ZM66.3381 204.044H57.6933V203.96L59.7336 201.642L67.6847 180.647L66.1753 178.328V178.248H74.9416L82.8522 201.642L84.9726 203.96V204.044H73.923V203.96L76.044 201.642L74.8612 197.614H65.7273L64.3399 201.642L66.3383 203.96L66.3381 204.044Z" fill="white"/>
</svg>
