<svg width="395" height="119" viewBox="0 0 395 119" fill="none" xmlns="http://www.w3.org/2000/svg">
<path d="M101.789 71.3596C101.648 71.6487 101.369 71.8481 101.049 71.8851C93.7485 72.732 85.9916 71.7169 83.0011 71.2475C78.0087 66.2597 72.6041 60.7117 68.6199 55.8632C68.2112 55.3666 68.1915 54.6564 68.5673 54.1333C74.2493 46.2117 79.4528 39.9261 81.6524 37.4374C87.9375 36.0676 94.2046 34.855 98.4368 34.682C98.7565 34.6692 99.0606 34.8164 99.2479 35.0758C104.703 42.6639 108.606 49.9346 109.858 52.5915C107.353 59.3217 104.339 66.1204 101.789 71.3596ZM94.8243 84.1979C90.8002 90.9351 87.7432 94.9968 86.7634 96.2316C85.4337 98.1087 82.0444 102.999 76.7791 107.945C76.4432 108.261 76.005 108.442 75.5431 108.462C68.9494 108.737 62.8187 108.274 60.4311 107.754C58.4096 106.918 53.7044 104.802 48.1432 101.727C47.6581 101.459 47.3726 100.937 47.409 100.385C47.6992 96.0744 49.067 89.9338 50.2769 83.4401C53.2685 78.1869 56.37 72.1932 59.586 67.2702C59.9247 66.7522 60.5589 66.5111 61.1572 66.6747C70.7866 69.3033 79.1423 71.2995 82.5346 72.0626C87.1796 77.4487 91.6806 81.2358 94.7087 83.5834C94.8971 83.7297 94.9457 83.9933 94.8243 84.1979ZM36.5639 93.5602C36.076 93.8625 35.4546 93.8464 34.9857 93.5145C30.7928 90.5466 25.79 86.7537 21.6231 82.8602C19.165 78.6598 17.2694 73.2841 15.9462 68.7062C15.8606 68.4113 15.9265 68.0922 16.1207 67.8546C20.7964 62.1066 26.4079 57.5588 28.7539 55.8274C34.0463 58.1104 40.1209 60.1245 45.4348 61.8916C45.9782 62.072 46.3621 62.5593 46.4071 63.1287C47.1564 72.5817 48.8883 80.2264 49.3508 83.1475C47.3668 85.2674 42.1824 90.0731 36.5639 93.5602ZM13.2748 56.3644C12.5811 51.9021 12.125 47.2155 12.0747 45.069C11.9596 40.1129 12.747 35.7235 13.6615 31.6595C13.8118 30.9943 14.157 30.3912 14.6605 29.9303C17.3168 27.4973 22.1202 23.2048 25.1517 21.2607C28.0093 19.4286 35.9511 16.8648 39.226 15.9137C39.8608 15.7286 40.5372 16.0109 40.8638 16.5847C41.2575 17.2764 41.6691 17.963 42.1055 18.639C44.6838 22.6526 47.5252 26.108 48.7218 27.6047C47.1356 33.9024 46.4615 40.9639 46.1545 46.9205C46.1256 47.4793 45.7695 47.9688 45.2475 48.1724C36.9616 51.4043 30.6991 53.9331 28.5949 54.9043C22.9018 55.1445 17.4793 56.1148 13.8194 56.7544C13.5598 56.8001 13.3153 56.6231 13.2748 56.3644ZM55.0445 13.1137C55.2711 12.7621 55.6422 12.5278 56.0573 12.4727C64.5778 11.3473 72.3734 11.1816 75.3697 11.2644C80.8223 14.89 86.1506 19.674 90.403 24.2108C90.7007 24.5288 90.7453 25.0076 90.51 25.3748C87.4756 30.1201 83.0624 34.6764 81.124 36.6604C73.9349 38.3617 66.3133 40.8384 60.1271 42.8686C59.5253 43.0658 58.8639 42.8421 58.5044 42.3205C53.8102 35.5025 50.8273 29.6574 49.6578 27.4889C50.9273 21.8047 52.7026 16.7418 55.0445 13.1137ZM111.961 69.0831C111.808 69.1519 111.633 69.0444 111.624 68.8779C111.267 61.8789 110.623 55.0782 110.286 52.5912C110.313 46.5466 109.311 40.2743 108.311 35.6495C108.275 35.4824 108.423 35.333 108.591 35.3666C114.311 36.5342 116.147 38.6756 116.147 38.6756C113.119 31.8882 108.756 26.7732 104.014 22.9075C99.9595 14.4211 95.2931 10.4958 95.2931 10.4958C95.6706 12.3729 95.4105 14.4958 94.7416 16.6867C94.6994 16.826 94.5399 16.8925 94.4087 16.8289C86.6379 13.0303 78.614 11.2954 75.5102 10.8612C70.8721 8.60749 65.8063 7.11623 61.6868 5.98583C61.5769 5.95582 61.5469 5.81361 61.6353 5.74C67.1029 1.20404 72.1324 0.0493533 72.1324 0.0493533C63.2285 -0.307204 55.5647 1.30266 49.1566 3.76431C39.5822 2.99758 33.4833 4.6618 33.4833 4.6618C33.4833 4.6618 36.1269 7.82438 37.1547 9.58503C37.2784 9.798 37.2137 10.0709 37.0108 10.211C30.9888 14.3839 26.6681 18.968 24.9644 20.8763C23.0666 21.1328 19.7795 21.5865 16.9087 22.2939C16.7942 22.3225 16.6971 22.2074 16.7434 22.0989C19.6182 15.2554 22.7521 11.4671 22.7521 11.4671C22.7521 11.4671 4.27386 24.5789 0.771179 48.1403C0.771179 48.1403 2.29273 43.9638 7.43777 37.6334C7.50541 37.5505 7.63663 37.567 7.68057 37.6649C9.13852 40.8903 10.8052 43.7545 11.6428 45.0691C8.81306 49.6208 6.85967 54.584 5.65666 58.6457C5.61503 58.7867 5.50866 58.9001 5.36992 58.9521C1.09028 60.5754 0 62.1241 0 62.1241C0.665387 64.3948 1.97188 66.6084 3.62234 68.6947C3.76571 68.8751 3.83855 69.1005 3.82872 69.3306C3.37434 79.386 6.62091 86.0046 6.62091 86.0046C7.35394 82.4927 8.78935 79.0813 10.6023 75.8798C10.6745 75.7521 10.8445 75.7203 10.9589 75.8111C15.1825 79.1628 19.5575 82.0932 21.2935 83.1338C22.189 85.4184 24.7529 91.3468 28.1786 97.4289C28.2503 97.5573 28.192 97.7197 28.0538 97.77C23.9516 99.2632 19.7431 99.939 15.8843 99.0002C15.8843 99.0002 20.538 104.793 34.8932 107.263C38.8757 111.965 43.7225 115.859 49.3826 117.212C49.3826 117.212 47.7235 115.39 47.3136 108.599C47.3049 108.462 47.4153 108.345 47.5535 108.347C51.0978 108.4 55.9058 108.477 60.3069 108.158C61.8666 109.386 65.2704 112.083 68.5904 113.802C68.7557 113.887 68.7661 114.12 68.6071 114.216C62.7713 117.741 58.8882 118.048 58.8882 118.048C85.3228 118.61 101.194 101.39 101.194 101.39C96.8401 104.251 91.8119 106.03 86.8067 107.089C86.6379 107.125 86.4899 106.976 86.5252 106.807C87.4548 102.316 87.194 97.9735 87.1287 96.4433C93.4005 94.8894 98.8715 92.0902 102.922 89.2286C103.004 89.1708 103.196 89.2275 103.196 89.2275C103.196 89.2275 106.325 91.7139 107.765 93.9025C107.765 93.9025 110.507 90.027 111.451 81.0474C118.241 72.1933 119.251 63.1305 119.251 63.1305C117.547 65.7915 114.974 67.709 111.961 69.0831Z" fill="white"/>
<path d="M101.789 71.3596C101.648 71.6487 101.369 71.8481 101.049 71.8851C93.7485 72.732 85.9916 71.7169 83.0011 71.2475C78.0087 66.2597 72.6041 60.7117 68.6199 55.8632C68.2112 55.3666 68.1915 54.6564 68.5673 54.1333C74.2493 46.2117 79.4528 39.9261 81.6524 37.4374C87.9375 36.0676 94.2046 34.855 98.4368 34.682C98.7565 34.6692 99.0606 34.8164 99.2479 35.0758C104.703 42.6639 108.606 49.9346 109.858 52.5915C107.353 59.3217 104.339 66.1204 101.789 71.3596ZM94.8243 84.1979C90.8002 90.9351 87.7432 94.9968 86.7634 96.2316C85.4337 98.1087 82.0444 102.999 76.7791 107.945C76.4432 108.261 76.005 108.442 75.5431 108.462C68.9494 108.737 62.8187 108.274 60.4311 107.754C58.4096 106.918 53.7044 104.802 48.1432 101.727C47.6581 101.459 47.3726 100.937 47.409 100.385C47.6992 96.0744 49.067 89.9338 50.2769 83.4401C53.2685 78.1869 56.37 72.1932 59.586 67.2702C59.9247 66.7522 60.5589 66.5111 61.1572 66.6747C70.7866 69.3033 79.1423 71.2995 82.5346 72.0626C87.1796 77.4487 91.6806 81.2358 94.7087 83.5834C94.8971 83.7297 94.9457 83.9933 94.8243 84.1979ZM36.5639 93.5602C36.076 93.8625 35.4546 93.8464 34.9857 93.5145C30.7928 90.5466 25.79 86.7537 21.6231 82.8602C19.165 78.6598 17.2694 73.2841 15.9462 68.7062C15.8606 68.4113 15.9265 68.0922 16.1207 67.8546C20.7964 62.1066 26.4079 57.5588 28.7539 55.8274C34.0463 58.1104 40.1209 60.1245 45.4348 61.8916C45.9782 62.072 46.3621 62.5593 46.4071 63.1287C47.1564 72.5817 48.8883 80.2264 49.3508 83.1475C47.3668 85.2674 42.1824 90.0731 36.5639 93.5602ZM13.2748 56.3644C12.5811 51.9021 12.125 47.2155 12.0747 45.069C11.9596 40.1129 12.747 35.7235 13.6615 31.6595C13.8118 30.9943 14.157 30.3912 14.6605 29.9303C17.3168 27.4973 22.1202 23.2048 25.1517 21.2607C28.0093 19.4286 35.9511 16.8648 39.226 15.9137C39.8608 15.7286 40.5372 16.0109 40.8638 16.5847C41.2575 17.2764 41.6691 17.963 42.1055 18.639C44.6838 22.6526 47.5252 26.108 48.7218 27.6047C47.1356 33.9024 46.4615 40.9639 46.1545 46.9205C46.1256 47.4793 45.7695 47.9688 45.2475 48.1724C36.9616 51.4043 30.6991 53.9331 28.5949 54.9043C22.9018 55.1445 17.4793 56.1148 13.8194 56.7544C13.5598 56.8001 13.3153 56.6231 13.2748 56.3644ZM55.0445 13.1137C55.2711 12.7621 55.6422 12.5278 56.0573 12.4727C64.5778 11.3473 72.3734 11.1816 75.3697 11.2644C80.8223 14.89 86.1506 19.674 90.403 24.2108C90.7007 24.5288 90.7453 25.0076 90.51 25.3748C87.4756 30.1201 83.0624 34.6764 81.124 36.6604C73.9349 38.3617 66.3133 40.8384 60.1271 42.8686C59.5253 43.0658 58.8639 42.8421 58.5044 42.3205C53.8102 35.5025 50.8273 29.6574 49.6578 27.4889C50.9273 21.8047 52.7026 16.7418 55.0445 13.1137ZM111.961 69.0831C111.808 69.1519 111.633 69.0444 111.624 68.8779C111.267 61.8789 110.623 55.0782 110.286 52.5912C110.313 46.5466 109.311 40.2743 108.311 35.6495C108.275 35.4824 108.423 35.333 108.591 35.3666C114.311 36.5342 116.147 38.6756 116.147 38.6756C113.119 31.8882 108.756 26.7732 104.014 22.9075C99.9595 14.4211 95.2931 10.4958 95.2931 10.4958C95.6706 12.3729 95.4105 14.4958 94.7416 16.6867C94.6994 16.826 94.5399 16.8925 94.4087 16.8289C86.6379 13.0303 78.614 11.2954 75.5102 10.8612C70.8721 8.60749 65.8063 7.11623 61.6868 5.98583C61.5769 5.95582 61.5469 5.81361 61.6353 5.74C67.1029 1.20404 72.1324 0.0493533 72.1324 0.0493533C63.2285 -0.307204 55.5647 1.30266 49.1566 3.76431C39.5822 2.99758 33.4833 4.6618 33.4833 4.6618C33.4833 4.6618 36.1269 7.82438 37.1547 9.58503C37.2784 9.798 37.2137 10.0709 37.0108 10.211C30.9888 14.3839 26.6681 18.968 24.9644 20.8763C23.0666 21.1328 19.7795 21.5865 16.9087 22.2939C16.7942 22.3225 16.6971 22.2074 16.7434 22.0989C19.6182 15.2554 22.7521 11.4671 22.7521 11.4671C22.7521 11.4671 4.27386 24.5789 0.771179 48.1403C0.771179 48.1403 2.29273 43.9638 7.43777 37.6334C7.50541 37.5505 7.63663 37.567 7.68057 37.6649C9.13852 40.8903 10.8052 43.7545 11.6428 45.0691C8.81306 49.6208 6.85967 54.584 5.65666 58.6457C5.61503 58.7867 5.50866 58.9001 5.36992 58.9521C1.09028 60.5754 0 62.1241 0 62.1241C0.665387 64.3948 1.97188 66.6084 3.62234 68.6947C3.76571 68.8751 3.83855 69.1005 3.82872 69.3306C3.37434 79.386 6.62091 86.0046 6.62091 86.0046C7.35394 82.4927 8.78935 79.0813 10.6023 75.8798C10.6745 75.7521 10.8445 75.7203 10.9589 75.8111C15.1825 79.1628 19.5575 82.0932 21.2935 83.1338C22.189 85.4184 24.7529 91.3468 28.1786 97.4289C28.2503 97.5573 28.192 97.7197 28.0538 97.77C23.9516 99.2632 19.7431 99.939 15.8843 99.0002C15.8843 99.0002 20.538 104.793 34.8932 107.263C38.8757 111.965 43.7225 115.859 49.3826 117.212C49.3826 117.212 47.7235 115.39 47.3136 108.599C47.3049 108.462 47.4153 108.345 47.5535 108.347C51.0978 108.4 55.9058 108.477 60.3069 108.158C61.8666 109.386 65.2704 112.083 68.5904 113.802C68.7557 113.887 68.7661 114.12 68.6071 114.216C62.7713 117.741 58.8882 118.048 58.8882 118.048C85.3228 118.61 101.194 101.39 101.194 101.39C96.8401 104.251 91.8119 106.03 86.8067 107.089C86.6379 107.125 86.4899 106.976 86.5252 106.807C87.4548 102.316 87.194 97.9735 87.1287 96.4433C93.4005 94.8894 98.8715 92.0902 102.922 89.2286C103.004 89.1708 103.196 89.2275 103.196 89.2275C103.196 89.2275 106.325 91.7139 107.765 93.9025C107.765 93.9025 110.507 90.027 111.451 81.0474C118.241 72.1933 119.251 63.1305 119.251 63.1305C117.547 65.7915 114.974 67.709 111.961 69.0831Z" fill="white"/>
<path d="M229.05 87.2242H218.856V79.4124H224.931L227.418 81.5288H227.501V73.554H227.418L224.931 75.6704H218.856V68.8749H228.684L231.538 71.9272H231.619L231.293 65.1716H210.333V65.2543L212.251 67.573V88.5677L210.333 90.8858V90.9673H232.19L232.721 83.1966H232.638L229.05 87.2242ZM232.901 35.302L240.12 53.6929H244.157L250.845 35.0997L251.986 51.291L249.457 53.6097V53.6929H260.426V53.6097L258.307 51.291L256.755 30.2963L258.428 27.9776V27.8972H249.295L243.096 45.1059L236.408 27.8972H227.152V27.9776L229.029 30.2963L227.926 51.291L225.686 53.6097V53.6929H234.695V53.6097L232.454 51.291L232.901 35.302ZM202.549 87.1831H193.701V67.573L196.108 65.2543V65.1716H185.178V65.2543L187.097 67.573V88.5677L185.178 90.8448V90.9673H205.689L206.669 82.8723H206.586L202.549 87.1831ZM182.796 53.6097V53.6929H193.195V53.6097L191.277 51.291V30.2963L193.195 27.9776V27.8972H182.796V27.9776L184.672 30.2963V38.1087H175.416V30.2963L177.292 27.9776V27.8972H166.894V27.9776L168.811 30.2963V51.291L166.894 53.6097V53.6929H177.292V53.6097L175.416 51.291V42.2184H184.672V51.291L182.796 53.6097ZM345.206 87.2242H335.011V79.4124H341.086L343.573 81.5288H343.656V73.554H343.573L341.086 75.6704H335.011V68.8749H344.839L347.693 71.9272H347.773L347.449 65.1716H326.488V65.2543L328.406 67.573V88.5677L326.488 90.8858V90.9673H348.345L348.876 83.1966H348.793L345.206 87.2242ZM251.624 80.6732L248.567 70.4224L244.977 80.6732H251.624ZM260.758 88.5677L262.878 90.8858V90.9673H251.829V90.8858L253.949 88.5677L252.767 84.5401H243.633L242.245 88.5677L244.244 90.8858V90.9673H235.599V90.8858L237.639 88.5677L245.59 67.573L244.081 65.2543V65.1716H252.847L260.758 88.5677ZM154.827 50.2747C149.525 50.2747 146.141 44.903 146.141 40.2638C146.141 34.5684 149.24 30.8669 153.685 30.8669C154.867 30.8669 156.01 30.9889 157.03 31.2715L161.025 36.1963H161.107L160.822 28.0585C159.679 27.6116 157.193 27 154.134 27C144.675 27 139.25 33.4296 139.25 40.8344C139.25 48.1588 144.47 54.5855 153.44 54.5855C155.847 54.5855 159.394 53.7733 161.841 51.9425L162.207 47.6704H162.126C160.048 49.2971 157.069 50.2747 154.827 50.2747ZM303.311 53.6097L301.435 51.291V30.2963L303.311 27.9776V27.8972H292.912V27.9776L294.829 30.2963V51.291L292.912 53.6097V53.6929H303.311V53.6097ZM280.501 78.8834L283.069 81.2045V86.046C282.252 86.9808 280.826 87.7531 278.91 87.7531C274.343 87.7531 271.937 82.1797 271.937 77.5006C271.937 72.4145 274.507 68.143 279.807 68.143C281.275 68.143 282.825 68.2656 284.088 68.7113L288.166 73.1048H288.247L288.002 66.0266C285.638 64.8057 282.783 64.279 279.888 64.279C271.203 64.279 265.045 69.6085 265.045 78.3961C265.045 85.7587 269.776 91.864 277.156 91.864C280.378 91.864 283.313 91.1304 286.045 89.1383L289.265 91.864H289.348V81.2045L291.386 78.8834V78.8025H280.501V78.8834ZM273.751 41.161C274.568 41.405 275.504 41.5264 276.483 41.5264C280.073 41.5264 281.622 39.5736 281.622 36.6842C281.622 33.266 279.624 31.6398 275.912 31.6398H273.751V41.161ZM267.147 51.291V30.2963L265.229 27.9776V27.8972H277.463C284.884 27.8972 288.268 31.2716 288.268 36.4016C288.268 41.7304 284.232 45.0256 278.727 45.0256C276.933 45.0256 275.098 44.903 273.751 44.5787V51.291L276.442 53.6097V53.6929H265.229V53.6097L267.147 51.291ZM328.754 42.6652C328.754 38.1908 327.083 31.0698 321.372 31.0698C316.806 31.0698 315.501 35.6263 315.501 38.718C315.501 43.2352 317.377 50.5181 322.883 50.5181C326.837 50.5181 328.754 46.7737 328.754 42.6652ZM321.903 54.5855C313.83 54.5855 308.61 47.9536 308.61 40.4292C308.61 32.6567 314.604 27 322.108 27C330.384 27 335.686 33.4706 335.686 40.8754C335.686 49.3382 329.284 54.5855 321.903 54.5855ZM313.28 65.2543L315.401 67.573V82.2624C315.401 86.4929 313.321 87.5508 309.937 87.5508C306.511 87.5508 304.432 86.5732 304.432 82.2624V67.573L306.552 65.2543V65.1716H295.909V65.2543L297.826 67.573V82.2624C297.826 89.299 301.414 91.864 309.079 91.864C316.053 91.864 319.601 89.4626 319.601 82.4647V67.573L321.475 65.2543V65.1716H313.28V65.2543ZM362.528 68.424C362.528 66.5902 361.134 65.204 359.376 65.204C357.598 65.204 356.207 66.5902 356.207 68.424C356.207 70.2952 357.598 71.6723 359.376 71.6723C361.134 71.6723 362.528 70.2952 362.528 68.424ZM363.31 68.424C363.31 70.6751 361.493 72.3169 359.376 72.3169C357.24 72.3169 355.426 70.6751 355.426 68.424C355.426 66.2 357.24 64.5559 359.376 64.5559C361.493 64.5559 363.31 66.2 363.31 68.424ZM359.37 68.1557C359.944 68.1557 360.46 68.1245 360.46 67.4337C360.46 66.877 359.956 66.7764 359.478 66.7764H358.551V68.1557H359.37ZM360.007 68.7032L361.273 70.6745H360.518L359.339 68.735H358.551V70.6745H357.876V66.2H359.584C360.644 66.2 361.166 66.5902 361.166 67.4713C361.166 68.2725 360.662 68.6182 360.007 68.7032ZM358.312 27.9776L360.8 30.2963V43.9671L350.319 27.8972H340.9V27.9776L342.818 30.2963V51.291L340.9 53.6097V53.6929H349.504V53.6097L346.977 51.291V34.2019L360.064 53.6929H364.959V30.2963L366.874 27.9776V27.8972H358.312V27.9776ZM384.606 37.8248C379.917 36.523 378.49 35.953 378.49 33.7972C378.49 31.3155 381.712 30.8258 383.751 30.8258C385.464 30.8258 387.054 31.0282 388.481 31.4768L392.395 35.709H392.476L392.151 28.4244C389.703 27.4902 387.135 27 384.2 27C378.042 27 372.129 29.1164 372.129 35.2211C372.129 39.1666 374.861 41.5264 380.774 43.1549C385.342 44.4157 387.585 45.2285 387.585 47.5484C387.585 50.2331 384.159 50.8019 381.874 50.8019C379.958 50.8019 378.245 50.5181 376.777 50.07L372.823 45.188H372.74L373.026 52.9177C375.719 54.1387 378.98 54.5855 382.037 54.5855C388.643 54.5855 394.189 51.8205 394.189 46.2465C394.189 40.9974 390.561 39.4926 384.606 37.8248ZM205.582 43.3982H212.228L209.171 33.1446L205.582 43.3982ZM204.849 53.6929H196.204V53.6097L198.244 51.291L206.195 30.2963L204.686 27.9776V27.8972H213.452L221.363 51.291L223.483 53.6097V53.6929H212.434V53.6097L214.555 51.291L213.372 47.2634H204.238L202.851 51.291L204.849 53.6097L204.849 53.6929Z" fill="white"/>
</svg>
