<svg width="115" height="25" viewBox="0 0 115 25" fill="none" xmlns="http://www.w3.org/2000/svg">
<path d="M0 18.8864V0.268531H5.70362V19.3306H15.7813V24.0945H3.31106L1.06665 21.6114C0.307403 20.7263 0 19.9108 0 18.8897M32.5181 15.9226L29.5144 5.02908H28.907L25.9033 15.9226H32.5218H32.5181ZM18.8664 20.2124L25.0256 0.265213H31.5662C32.7847 0.265213 33.544 0.775745 33.8847 1.86643L39.5513 20.2124C39.818 21.028 39.855 21.575 39.855 22.6292V24.0945H34.7958L32.781 16.8442L24.6034 20.587L23.6145 24.0945H18.5553V22.6292C18.5553 21.575 18.5923 21.028 18.859 20.2124M42.4438 18.8864V0.268531H48.1475V19.3306H58.2251V24.0945H45.7512L43.5068 21.6114C42.7475 20.7263 42.4401 19.9108 42.4401 18.8897M61.4584 0.265213H67.162V24.0912H61.4584V0.265213ZM71.0397 16.5293V7.83037C71.0397 2.7582 74.1212 0 79.7878 0H82.284C87.8728 0 91.032 2.55267 91.032 7.08115H85.3284V6.12639C85.3284 5.24125 84.7951 4.76386 83.8062 4.76386H78.2656C77.2767 4.76386 76.7434 5.24125 76.7434 6.12639V18.23C76.7434 19.1151 77.2767 19.5925 78.2656 19.5925H83.8062C84.7951 19.5925 85.3284 19.1151 85.3284 18.23V15.2331H81.3729V10.4692H87.7247L89.9691 12.9523C90.7283 13.8043 91.0357 14.5866 91.0357 15.674V16.526C91.0357 21.5982 87.9543 24.3564 82.2877 24.3564H79.7915C74.1249 24.3564 71.0434 21.5982 71.0434 16.526M106.706 15.9226L103.702 5.02908H103.095L100.091 15.9226H106.71H106.706ZM93.0542 20.2124L99.2134 0.265213H105.754C106.973 0.265213 107.732 0.775745 108.073 1.86643L113.739 20.2124C114.006 21.028 114.043 21.575 114.043 22.6292V24.0945H108.984L106.969 16.8442L98.7912 20.587L97.8023 24.0945H92.7431V22.6292C92.7431 21.575 92.7802 21.028 93.0468 20.2124" fill="white"/>
</svg>
