<svg width="74" height="91" viewBox="0 0 74 91" fill="none" xmlns="http://www.w3.org/2000/svg">
<path d="M64.2697 41.3867C62.2974 43.003 60.6254 43.9038 60.6254 43.9038L60.6482 49.027C62.058 50.5617 63.4489 51.8333 64.4901 54.1502C66.4661 50.6804 66.0861 45.5794 64.2697 41.3867ZM62.6661 58.1576C62.6661 58.1576 62.2633 56.0445 60.5494 54.0724L56.6391 54.1651C56.6391 54.1651 51.3684 58.584 48.1535 58.6877C48.1535 58.6877 49.9244 61.9018 50.8212 63.5811C52.5882 63.203 55.7005 61.8425 56.9545 60.419C56.9545 60.419 57.7829 63.0251 57.6271 66.102C59.3866 65.1085 61.811 62.4096 62.6661 58.1576ZM57.6271 48.9047L57.6198 43.8C57.6198 43.8 55.2828 43.0697 52.7899 41.1828C47.7814 41.9205 41.7164 46.8361 41.7164 46.8361C41.7164 46.8361 43.7647 50.6285 46.0067 54.7212C49.9474 55.2587 55.7537 50.4024 57.6271 48.9047ZM70.9847 70.1612L67.7623 66.6803C66.8426 76.0889 62.1191 84.0777 53.4435 89.6495L52.1173 84.5744C44.7527 89.7644 32.1136 93.1304 21.2567 87.1398C22.6058 80.4299 23.8028 73.6311 21.2339 65.4903C15.2222 74.5727 9.90205 78.1315 9.90205 78.1315C5.83976 71.4773 6.20456 58.128 7.41679 54.1984L0.656433 56.2411C0.656433 51.7555 3.96631 42.2393 8.76203 36.8937L4.54012 36.2338H4.53594C7.40501 30.5138 11.6877 25.5833 16.928 21.8799L16.9354 21.8757C15.3621 24.3002 15.3393 30.2834 19.9488 32.5596C17.9918 29.2121 17.7562 25.075 19.8006 22.9323C21.8451 20.771 25.2842 21.5125 27.4806 23.1881C26.827 21.3197 24.9118 18.9694 22.0427 18.81H22.0385C27.4574 16.089 33.6098 14.5579 40.1193 14.5579C41.3354 14.5579 42.5476 14.6098 43.7332 14.7136C45.6257 15.455 48.4035 18.0574 49.6994 19.6774C49.6994 19.6774 49.7905 17.7683 48.7037 15.4625C55.7529 17.1381 59.116 19.9369 60.5258 21.2863C60.8146 24.2594 61.7267 26.0425 62.9313 28.8673C60.6474 26.3725 54.9093 22.3466 52.1694 21.3827C52.1694 21.3827 51.9452 23.9592 51.0028 25.1973C45.5459 21.3568 42.8668 20.3892 42.8668 20.3892C36.8779 21.227 33.0246 23.4809 30.9307 25.2529L32.7548 26.7691C29.1447 27.8516 26.8 30.8766 26.8 30.8766C26.8266 30.9323 30.0263 31.377 30.0263 31.377C30.0263 31.377 29.6995 35.0434 34.404 37.3418C38.4359 39.3102 44.231 36.8673 49.688 39.0026C46.1007 34.9618 43.6192 33.1565 43.6192 33.1565C43.6192 33.1565 42.1942 32.8673 41.191 32.8747C39.9369 32.882 38.0673 33.1231 36.019 32.3446C35.0386 31.9702 33.8948 31.3103 32.998 30.7617C32.998 30.7617 35.5174 28.2371 39.1997 27.6811C39.1997 27.6811 42.521 28.593 45.1507 30.4911C46.8987 28.8303 48.7227 28.8822 48.7227 28.8822C48.7227 28.8822 46.9139 30.5281 47.4611 32.5225C50.087 34.8061 52.937 38.0758 52.937 38.0758C55.8403 36.5262 62.1523 36.8821 63.4481 38.3501C61.8065 36.2704 59.439 34.5355 57.6073 33.0527C57.3832 32.2742 55.3843 29.5606 55.0461 29.3085C55.0461 29.3085 56.9461 29.8794 58.6448 31.3659C59.1312 30.6875 60.0432 29.998 61.2858 29.694C62.5627 30.7394 62.7907 32.3446 62.7565 32.6115C62.1827 33.2825 61.6126 33.5568 61.6126 33.5568L64.6907 36.808L64.9985 34.4762C72.0895 44.3556 75.9542 55.7883 70.9837 70.1607M14.9855 7.6372C19.0744 9.4648 21.7003 11.7706 22.1791 12.1228C21.9625 11.0922 21.1569 6.13212 20.6933 3.05152C23.0759 4.66411 28.6051 8.40828 30.4253 9.62421C31.1663 7.39624 33.7352 0.119198 33.7352 0.119198C33.7352 0.119198 38.3789 7.45185 39.1731 8.64183C40.1421 7.65203 45.6903 1.62799 47.1267 0.10437C47.3661 3.57051 47.6929 8.52691 47.7765 9.27203C48.0539 8.90503 50.1782 5.99866 53.7389 3.32213C52.196 6.28782 51.4588 10.3805 51.132 13.6687C47.6283 12.7159 43.9308 12.2044 40.1231 12.2044C32.808 12.2044 25.9374 14.0801 19.9979 17.3758C18.9186 14.1988 17.2276 10.247 14.9855 7.6372Z" fill="#D9D9D9"/>
</svg>
