<?xml version="1.0" encoding="UTF-8" standalone="no"?><!DOCTYPE svg PUBLIC "-//W3C//DTD SVG 1.1//EN" "http://www.w3.org/Graphics/SVG/1.1/DTD/svg11.dtd"><svg width="100%" height="100%" viewBox="0 0 1850 272" version="1.1" xmlns="http://www.w3.org/2000/svg" xmlns:xlink="http://www.w3.org/1999/xlink" xml:space="preserve" xmlns:serif="http://www.serif.com/" style="fill-rule:evenodd;clip-rule:evenodd;stroke-linejoin:round;stroke-miterlimit:2;"><g><path d="M0,205.102l0,-205.102l65.002,0c42.337,0 74.084,25.188 74.084,68.541c0,43.353 -31.252,69.529 -74.084,69.529l-25.188,0l0,67.032l-39.813,0Zm39.813,-105.309l23.185,0c20.167,0 34.764,-11.085 34.764,-31.252c0,-20.167 -14.625,-30.731 -34.764,-30.731l-23.185,0l0,61.983Zm564.408,-29.743l37.289,0l0,135.052l-37.289,0l0,-135.052Zm19.152,-18.137c-13.088,0 -23.185,-10.07 -23.185,-22.692c0,-12.622 10.07,-23.185 23.185,-23.185c13.116,0 23.185,10.07 23.185,23.185c0,13.116 -10.07,22.692 -23.185,22.692m-75.099,73.562c0,-14.625 -8.067,-23.679 -20.661,-23.679c-14.625,0 -22.17,9.082 -22.17,24.201l0,79.105l-37.289,0l0,-79.626c0,-14.625 -8.067,-23.679 -20.661,-23.679c-14.625,0 -22.17,9.082 -22.17,24.201l0,79.105l-37.289,0l0,-135.052l32.761,0l4.033,17.643c0,0 8.067,-21.155 33.255,-21.155c15.612,0 28.728,6.558 37.783,20.167l1.015,1.509l1.015,-1.509c13.116,-18.631 29.222,-20.167 39.319,-20.167c28.728,0 48.374,21.676 48.374,52.407l0,86.184l-37.289,0l0,-79.626l-0.027,-0.027Zm260.555,79.626l0,-135.052l32.268,0l4.033,19.646c6.036,-12.594 18.137,-21.155 34.271,-21.155c3.54,0 7.052,0.494 10.591,1.509l0,35.78c-4.527,-1.015 -8.561,-1.509 -13.116,-1.509c-18.137,0 -30.731,11.085 -30.731,32.761l0,68.02l-37.316,0Zm-657.15,0l0,-135.052l32.268,0l4.033,19.646c6.036,-12.594 18.137,-21.155 34.271,-21.155c3.512,0 7.052,0.494 10.591,1.509l0,35.78c-4.527,-1.015 -8.561,-1.509 -13.116,-1.509c-18.137,0 -30.731,11.085 -30.731,32.761l0,68.02l-37.316,0Zm577.002,3.54c-41.816,0 -72.575,-28.728 -72.575,-70.544c0,-37.783 27.713,-71.559 71.559,-71.559c32.761,0 66.511,24.695 66.511,70.544c0,3.512 0,8.067 -1.015,13.088l-98.778,0c3.54,15.119 17.122,25.216 33.777,25.216c15.119,0 26.698,-5.543 36.274,-15.64l22.664,23.185c-14.625,16.628 -35.78,25.71 -58.471,25.71m-1.948,-109.369c-15.612,0 -28.728,9.082 -31.746,23.679l62.477,0c-3.018,-14.103 -15.612,-23.679 -30.731,-23.679m-418.765,109.369c-41.816,0 -72.575,-28.728 -72.575,-70.544c0,-37.783 27.713,-71.559 71.559,-71.559c32.761,0 66.511,24.695 66.511,70.544c0,3.512 0,8.067 -1.015,13.088l-98.778,0c3.54,15.119 17.149,25.216 33.777,25.216c15.119,0 26.698,-5.543 36.301,-15.64l22.664,23.185c-14.625,16.628 -35.78,25.71 -58.471,25.71m-2.003,-109.369c-15.612,0 -28.728,9.082 -31.746,23.679l62.477,0c-3.018,-14.103 -15.612,-23.679 -30.731,-23.679" style="fill:#fff;fill-rule:nonzero;"/><path d="M0,205.102l0,-205.102l65.002,0c42.337,0 74.084,25.188 74.084,68.541c0,43.353 -31.252,69.529 -74.084,69.529l-25.188,0l0,67.032l-39.813,0Zm39.813,-105.309l23.185,0c20.167,0 34.764,-11.085 34.764,-31.252c0,-20.167 -14.625,-30.731 -34.764,-30.731l-23.185,0l0,61.983Zm564.408,-29.743l37.289,0l0,135.052l-37.289,0l0,-135.052Zm19.152,-18.137c-13.088,0 -23.185,-10.07 -23.185,-22.692c0,-12.622 10.07,-23.185 23.185,-23.185c13.116,0 23.185,10.07 23.185,23.185c0,13.116 -10.07,22.692 -23.185,22.692m-75.099,73.562c0,-14.625 -8.067,-23.679 -20.661,-23.679c-14.625,0 -22.17,9.082 -22.17,24.201l0,79.105l-37.289,0l0,-79.626c0,-14.625 -8.067,-23.679 -20.661,-23.679c-14.625,0 -22.17,9.082 -22.17,24.201l0,79.105l-37.289,0l0,-135.052l32.761,0l4.033,17.643c0,0 8.067,-21.155 33.255,-21.155c15.612,0 28.728,6.558 37.783,20.167l1.015,1.509l1.015,-1.509c13.116,-18.631 29.222,-20.167 39.319,-20.167c28.728,0 48.374,21.676 48.374,52.407l0,86.184l-37.289,0l0,-79.626l-0.027,-0.027Zm260.555,79.626l0,-135.052l32.268,0l4.033,19.646c6.036,-12.594 18.137,-21.155 34.271,-21.155c3.54,0 7.052,0.494 10.591,1.509l0,35.78c-4.527,-1.015 -8.561,-1.509 -13.116,-1.509c-18.137,0 -30.731,11.085 -30.731,32.761l0,68.02l-37.316,0Zm-657.15,0l0,-135.052l32.268,0l4.033,19.646c6.036,-12.594 18.137,-21.155 34.271,-21.155c3.512,0 7.052,0.494 10.591,1.509l0,35.78c-4.527,-1.015 -8.561,-1.509 -13.116,-1.509c-18.137,0 -30.731,11.085 -30.731,32.761l0,68.02l-37.316,0Zm577.002,3.54c-41.816,0 -72.575,-28.728 -72.575,-70.544c0,-37.783 27.713,-71.559 71.559,-71.559c32.761,0 66.511,24.695 66.511,70.544c0,3.512 0,8.067 -1.015,13.088l-98.778,0c3.54,15.119 17.122,25.216 33.777,25.216c15.119,0 26.698,-5.543 36.274,-15.64l22.664,23.185c-14.625,16.628 -35.78,25.71 -58.471,25.71m-1.948,-109.369c-15.612,0 -28.728,9.082 -31.746,23.679l62.477,0c-3.018,-14.103 -15.612,-23.679 -30.731,-23.679m-418.765,109.369c-41.816,0 -72.575,-28.728 -72.575,-70.544c0,-37.783 27.713,-71.559 71.559,-71.559c32.761,0 66.511,24.695 66.511,70.544c0,3.512 0,8.067 -1.015,13.088l-98.778,0c3.54,15.119 17.149,25.216 33.777,25.216c15.119,0 26.698,-5.543 36.301,-15.64l22.664,23.185c-14.625,16.628 -35.78,25.71 -58.471,25.71m-2.003,-109.369c-15.612,0 -28.728,9.082 -31.746,23.679l62.477,0c-3.018,-14.103 -15.612,-23.679 -30.731,-23.679" style="fill:#fff;fill-rule:nonzero;"/></g><path d="M1630.455,208.702c-29.949,0 -66.474,-15.958 -66.474,-65.787l0,-71.27l37.547,0l0,68.8c0,22.933 10.665,32.894 28.927,32.894c16.743,0 28.927,-11.453 28.927,-32.894l0,-68.8l37.547,0l0,71.27c0,49.856 -37.05,65.787 -66.474,65.787m-323.225,0c-36.027,0 -67.496,-32.405 -67.496,-70.292c0,-37.887 31.469,-68.773 67.496,-68.773c20.307,0 34.011,6.975 42.106,19.432l4.061,-17.451l32.988,0l0,133.583l-32.988,0l-4.061,-16.935c-8.123,11.969 -23.346,20.436 -42.106,20.436m7.598,-105.683c-20.307,0 -35.503,14.954 -35.503,35.391c0,20.436 15.223,34.902 35.503,34.902c20.279,0 35.005,-15.443 35.005,-34.902c0,-20.436 -15.223,-35.391 -35.005,-35.391m-362.291,102.182l0,-197.877l40.089,0l0,160.506l87.278,0l0,37.372l-127.367,0Zm208.539,3.501c-42.106,0 -73.077,-28.416 -73.077,-69.777c0,-37.372 27.905,-70.781 72.055,-70.781c32.988,0 66.971,24.426 66.971,69.777c0,3.474 0,7.979 -1.022,12.946l-99.462,0c3.536,14.954 17.24,24.914 33.983,24.914c15.223,0 26.882,-5.482 36.552,-15.443l22.821,22.933c-14.726,16.447 -36.027,25.43 -58.876,25.43m-1.962,-108.18c-15.721,0 -28.927,8.983 -31.966,23.422l62.91,0c-3.039,-13.95 -15.721,-23.422 -30.944,-23.422m624.126,108.18c-42.106,0 -73.077,-28.416 -73.077,-69.777c0,-37.372 27.905,-70.781 72.055,-70.781c32.988,0 66.971,24.426 66.971,69.777c0,3.474 0,7.979 -1.022,12.946l-99.462,0c3.564,14.954 17.24,24.914 34.011,24.914c15.223,0 26.882,-5.482 36.525,-15.443l22.821,22.933c-14.726,16.447 -36.027,25.43 -58.849,25.43m-1.989,-108.18c-15.721,0 -28.927,8.983 -31.966,23.422l62.91,0c-3.039,-13.95 -15.721,-23.422 -30.944,-23.422m-305.985,2.497c-19.782,0 -35.53,14.954 -35.53,35.391c0,20.436 15.721,34.902 35.53,34.902c19.81,0 35.53,-15.443 35.53,-34.902c0,-20.436 -15.748,-35.391 -35.53,-35.391m33.486,-14.438l4.061,-16.935l32.988,0l0,127.612c0,24.914 -7.101,42.365 -23.843,55.338c-12.681,9.472 -29.949,16.447 -50.753,16.447c-28.402,0 -48.709,-9.472 -64.954,-24.914l20.804,-28.416c10.14,9.472 23.843,17.94 41.608,17.94c27.905,0 40.089,-13.461 40.089,-33.382l0,-9.472c-11.162,11.453 -24.341,15.958 -39.067,15.958c-38.569,0 -69.016,-30.912 -69.016,-70.292c0,-39.38 31.469,-68.773 70.038,-68.773c15.721,0 29.949,7.491 38.044,18.944" style="fill:#fff;fill-rule:nonzero;"/></svg>